<svg width="196" height="196" viewBox="0 0 196 196" fill="none" xmlns="http://www.w3.org/2000/svg">
<g clip-path="url(#clip0_9393_28686)">
<path fill-rule="evenodd" clip-rule="evenodd" d="M85.9964 31.1461C84.949 31.1461 84.0119 30.4295 83.7638 29.3821L81.0075 17.5851C80.1531 13.8917 81.0902 10.088 83.626 6.86317C86.9335 2.70117 92.5839 0 98.0138 0C103.444 0 109.067 2.70117 112.374 6.86317C114.937 10.088 115.847 13.8917 114.993 17.5851L112.236 29.3821C111.961 30.6224 110.72 31.3666 109.48 31.091C101.983 29.327 94.0172 29.327 86.5477 31.091C86.3547 31.1185 86.1893 31.1461 85.9964 31.1461Z" fill="#FFD013"/>
<path fill-rule="evenodd" clip-rule="evenodd" d="M98.0138 196C84.3701 196 73.2898 184.92 73.2898 171.276C73.2898 170.008 74.3097 168.988 75.5776 168.988H120.422C121.69 168.988 122.738 170.008 122.738 171.276C122.738 184.92 111.63 196 98.0138 196ZM160.94 152.451H35.0601C33.3236 152.451 32.2211 150.604 33.048 149.06C45.0654 126.679 42.8879 104.023 42.8879 80.2909C42.8879 49.889 67.6119 25.165 97.9862 25.165C128.388 25.165 153.112 49.889 153.112 80.2909C153.112 104.023 150.935 126.679 162.952 149.06C163.779 150.604 162.676 152.451 160.94 152.451Z" fill="url(#paint0_linear_9393_28686)"/>
<path fill-rule="evenodd" clip-rule="evenodd" d="M161.96 173.564H34.0677C26.9565 173.564 21.1958 167.803 21.1958 160.72C21.1958 153.636 26.9565 147.848 34.0677 147.848H161.96C169.043 147.848 174.804 153.636 174.804 160.72C174.804 167.803 169.043 173.564 161.96 173.564Z" fill="url(#paint1_linear_9393_28686)"/>
<path d="M5.3472 68.7868C4.96653 68.7868 4.58696 68.7461 4.21494 68.6654C1.3316 68.043 -0.501018 65.201 0.121367 62.3176C4.39831 42.5071 15.3132 24.3087 30.855 11.0745C33.101 9.16209 36.4718 9.43305 38.3838 11.6783C40.2962 13.9243 40.0259 17.2948 37.7799 19.2071C24.0134 30.9296 14.3472 47.0404 10.5623 64.5718C10.0222 67.0753 7.80825 68.7868 5.3472 68.7868Z" fill="#FF4A4A"/>
<path d="M25.8815 75.0357C25.5542 75.0357 25.2224 75.0055 24.8891 74.9428C21.9901 74.398 20.082 71.6062 20.6268 68.7076C23.5582 53.1088 31.7788 38.6999 43.7736 28.1354C45.9869 26.1853 49.3619 26.4 51.3113 28.6132C53.2611 30.8268 53.0467 34.2015 50.8335 36.1509C40.6179 45.1488 33.6182 57.4113 31.1244 70.6801C30.6423 73.2462 28.4002 75.0357 25.8815 75.0357Z" fill="#FF4A4A"/>
<path fill-rule="evenodd" clip-rule="evenodd" d="M185.163 64.5718C185.703 67.0753 187.916 68.7865 190.378 68.7865C190.751 68.7865 191.131 68.747 191.51 68.6654C194.393 68.043 196.226 65.201 195.604 62.3177C191.327 42.5071 180.412 24.3084 164.87 11.0748C162.624 9.16211 159.254 9.43272 157.342 11.6787C155.429 13.9244 155.7 17.2951 157.946 19.2075C171.712 30.9296 181.378 47.0404 185.163 64.5718ZM164.599 70.6793C165.081 73.245 167.323 75.0346 169.842 75.0346C170.169 75.0346 170.502 75.0043 170.834 74.9413C173.733 74.3965 175.642 71.605 175.097 68.706C172.165 53.1076 163.945 38.6991 151.951 28.1346C149.738 26.1852 146.363 26.3991 144.413 28.6124C142.464 30.826 142.677 34.2007 144.891 36.1504C155.106 45.148 162.105 57.4109 164.599 70.6793Z" fill="#FF4A4A"/>
</g>
<defs>
<linearGradient id="paint0_linear_9393_28686" x1="44.0991" y1="102.9" x2="151.899" y2="122.5" gradientUnits="userSpaceOnUse">
<stop stop-color="#FFB03C"/>
<stop offset="1" stop-color="#FFA725"/>
</linearGradient>
<linearGradient id="paint1_linear_9393_28686" x1="21.1958" y1="160.706" x2="174.804" y2="160.706" gradientUnits="userSpaceOnUse">
<stop stop-color="#FFDB4D"/>
<stop offset="1" stop-color="#FFD013"/>
</linearGradient>
<clipPath id="clip0_9393_28686">
<rect width="196" height="196" fill="white"/>
</clipPath>
</defs>
</svg>
